<?xml version="1.0" encoding="iso-8859-1"?>
<!-- Uploaded to: SVG Repo, www.svgrepo.com, Generator: SVG Repo Mixer Tools -->
<svg fill="#000000" height="800px" width="800px" version="1.1" id="Capa_1" xmlns="http://www.w3.org/2000/svg" xmlns:xlink="http://www.w3.org/1999/xlink" 
	 viewBox="0 0 60 60" xml:space="preserve">
<g>
	<path d="M0,0.5v59h60v-59H0z M58,57.5H2v-55h56V57.5z"/>
	<path d="M29,48.5h20c0.553,0,1-0.447,1-1s-0.447-1-1-1H29c-0.553,0-1,0.447-1,1S28.447,48.5,29,48.5z"/>
	<path d="M29,41.5h13c0.553,0,1-0.447,1-1s-0.447-1-1-1H29c-0.553,0-1,0.447-1,1S28.447,41.5,29,41.5z"/>
	<path d="M29,34.5h20c0.553,0,1-0.447,1-1s-0.447-1-1-1H29c-0.553,0-1,0.447-1,1S28.447,34.5,29,34.5z"/>
	<path d="M29,27.5h18c0.553,0,1-0.447,1-1s-0.447-1-1-1H29c-0.553,0-1,0.447-1,1S28.447,27.5,29,27.5z"/>
	<path d="M29,20.5h14c0.553,0,1-0.447,1-1s-0.447-1-1-1H29c-0.553,0-1,0.447-1,1S28.447,20.5,29,20.5z"/>
	<path d="M29,13.5h20c0.553,0,1-0.447,1-1s-0.447-1-1-1H29c-0.553,0-1,0.447-1,1S28.447,13.5,29,13.5z"/>
	<path d="M15.292,28.206c0.092,0.093,0.203,0.166,0.326,0.217C15.74,28.474,15.87,28.5,16,28.5s0.26-0.026,0.382-0.077
		c0.123-0.051,0.234-0.124,0.326-0.217l6.999-6.999c0.391-0.391,0.391-1.023,0-1.414s-1.023-0.391-1.414,0L17,25.086V10.5
		c0-0.553-0.447-1-1-1s-1,0.447-1,1v14.586l-5.293-5.293c-0.391-0.391-1.023-0.391-1.414,0s-0.391,1.023,0,1.414L15.292,28.206z"/>
	<path d="M9,40.5c0.256,0,0.512-0.098,0.707-0.293L15,34.914V49.5c0,0.553,0.447,1,1,1s1-0.447,1-1V34.914l5.293,5.293
		C22.488,40.402,22.744,40.5,23,40.5s0.512-0.098,0.707-0.293c0.391-0.391,0.391-1.023,0-1.414l-6.999-6.999
		c-0.092-0.093-0.203-0.166-0.326-0.217c-0.244-0.101-0.519-0.101-0.764,0c-0.123,0.051-0.234,0.125-0.326,0.217l-6.999,6.999
		c-0.391,0.391-0.391,1.023,0,1.414C8.488,40.402,8.744,40.5,9,40.5z"/>
</g>
</svg>