<svg xmlns="http://www.w3.org/2000/svg" viewBox="0 0 48 48" width="48" height="48" fill="none"><path fill="#FFD400" fill-rule="evenodd" d="M21.942 48h21.086c1.729 0 2.356-.18 2.988-.518a3.524 3.524 0 0 0 1.466-1.466c.338-.632.518-1.26.518-2.988V21.942c0-1.729-.18-2.356-.518-2.988a3.524 3.524 0 0 0-1.466-1.466c-.632-.338-1.26-.518-2.988-.518H32.97v9.163c0 2.377-.248 3.24-.713 4.108a4.847 4.847 0 0 1-2.016 2.016c-.869.465-1.73.713-4.108.713H16.97v10.058c0 1.729.18 2.356.518 2.988a3.524 3.524 0 0 0 1.466 1.466c.632.338 1.26.518 2.988.518Z" clip-rule="evenodd"></path><path fill="#fff" d="M42.182 35.653a.84.84 0 0 0-.848-.832.84.84 0 0 0-.847.832v3.689l-4.939-4.847a.858.858 0 0 0-1.198 0 .82.82 0 0 0 0 1.176l4.938 4.847h-3.757a.84.84 0 0 0-.848.832c0 .46.38.832.848.832h5.803c.11 0 .22-.023.324-.064a.838.838 0 0 0 .523-.767v-5.698Z"></path><path fill="#FFF3B6" fill-rule="evenodd" d="M4.977 0h21.105c1.73 0 2.358.18 2.99.519.633.338 1.13.834 1.468 1.467.339.633.519 1.26.519 2.991v21.105c0 1.73-.18 2.358-.519 2.99a3.528 3.528 0 0 1-1.467 1.468c-.633.339-1.26.519-2.991.519H4.977c-1.73 0-2.358-.18-2.99-.519a3.528 3.528 0 0 1-1.468-1.467C.18 28.44 0 27.813 0 26.082V4.977c0-1.73.18-2.358.519-2.99A3.528 3.528 0 0 1 1.986.518C2.62.18 3.246 0 4.977 0Z" clip-rule="evenodd"></path><path fill="#DAB400" fill-rule="evenodd" d="M9.869 12.428v4.499c0 1.594-.887 2.555-2.598 2.555-2.08 0-2.47-1.383-2.47-2.133 0-.644.295-1.056.823-1.056.623 0 .781.486.781 1.003 0 .497.233.856.845.856.57 0 .887-.423.887-1.246v-4.478c0-.517.338-.866.866-.866s.866.349.866.866Zm1.605 6.146v-5.86c0-.772.401-1.014 1.014-1.014h2.65c1.458 0 2.63.718 2.63 2.407 0 1.384-.961 2.408-2.64 2.408h-1.922v2.06c0 .517-.338.865-.866.865s-.866-.349-.866-.866Zm1.732-5.544v2.154h1.616c.697 0 1.214-.422 1.214-1.077 0-.76-.538-1.077-1.394-1.077h-1.436Zm12.756 2.967v2.862c0 .317-.242.581-.59.581-.497 0-.634-.306-.74-.982-.496.623-1.183 1.024-2.26 1.024-2.682 0-3.706-1.848-3.706-3.98 0-2.567 1.605-3.982 3.96-3.982 1.921 0 2.946 1.151 2.946 1.827 0 .602-.444.76-.813.76-.856 0-.539-1.193-2.229-1.193-1.193 0-2.133.781-2.133 2.703 0 1.5.74 2.535 2.155 2.535.918 0 1.72-.623 1.805-1.553h-1.13c-.37 0-.78-.137-.78-.665 0-.422.242-.665.675-.665h2.133c.507 0 .707.253.707.728Z" clip-rule="evenodd"></path></svg>