<svg xmlns="http://www.w3.org/2000/svg" viewBox="0 0 48 48" width="48" height="48" fill="none"><path fill="#FFF3B6" fill-rule="evenodd" d="M26.159 0H4.992c-1.736 0-2.365.18-3 .52A3.538 3.538 0 0 0 .52 1.992c-.34.635-.52 1.264-.52 3v21.167c0 1.736.18 2.365.52 3 .34.634.837 1.132 1.472 1.471.635.34 1.264.52 3 .52h10.096v-9.198c0-2.387.249-3.252.716-4.125a4.865 4.865 0 0 1 2.023-2.023c.873-.467 1.738-.716 4.125-.716h9.198V4.992c0-1.736-.18-2.365-.52-3A3.539 3.539 0 0 0 29.16.52c-.635-.34-1.264-.52-3-.52Z" clip-rule="evenodd"></path><path fill="#DAB400" d="M13.451 7.04a.817.817 0 1 0-1.633 0v3.623l-4.76-4.76a.816.816 0 1 0-1.155 1.155l4.76 4.76H7.04a.817.817 0 1 0 0 1.633h5.593a.815.815 0 0 0 .816-.816V7.04h.001Z"></path><path fill="#FFD400" fill-rule="evenodd" d="M21.841 16.85h21.167c1.736 0 2.365.18 3 .52.635.339 1.133.837 1.472 1.472.34.634.52 1.264.52 3v21.166c0 1.736-.18 2.365-.52 3a3.538 3.538 0 0 1-1.472 1.472c-.635.34-1.264.52-3 .52H21.841c-1.736 0-2.365-.18-3-.52a3.54 3.54 0 0 1-1.471-1.472c-.34-.635-.52-1.264-.52-3V21.841c0-1.736.18-2.365.52-3a3.538 3.538 0 0 1 1.471-1.471c.635-.34 1.264-.52 3-.52Z" clip-rule="evenodd"></path><path fill="#fff" fill-rule="evenodd" d="M26.748 29.314v4.512c0 1.6-.89 2.563-2.606 2.563-2.086 0-2.478-1.387-2.478-2.14 0-.645.296-1.058.826-1.058.625 0 .784.487.784 1.006 0 .498.233.858.847.858.572 0 .89-.424.89-1.25v-4.49c0-.52.339-.87.868-.87.53 0 .869.35.869.87Zm1.61 6.164V29.6c0-.773.402-1.016 1.016-1.016h2.659c1.461 0 2.637.72 2.637 2.414 0 1.388-.964 2.415-2.648 2.415h-1.928v2.065c0 .52-.339.869-.868.869-.53 0-.869-.35-.869-.869Zm1.736-5.56v2.16h1.62c.7 0 1.219-.423 1.219-1.08 0-.762-.54-1.08-1.398-1.08h-1.44Zm12.795 2.976v2.87a.577.577 0 0 1-.594.583c-.497 0-.635-.307-.74-.985-.499.625-1.187 1.027-2.267 1.027-2.69 0-3.718-1.853-3.718-3.993 0-2.573 1.61-3.992 3.972-3.992 1.927 0 2.955 1.154 2.955 1.832 0 .604-.445.762-.816.762-.858 0-.54-1.196-2.234-1.196-1.197 0-2.14.783-2.14 2.71 0 1.505.741 2.543 2.16 2.543.922 0 1.727-.625 1.812-1.557h-1.134c-.37 0-.783-.138-.783-.667 0-.424.243-.668.678-.668h2.139c.508 0 .71.255.71.731Z" clip-rule="evenodd"></path></svg>