<svg xmlns="http://www.w3.org/2000/svg" viewBox="0 0 48 48" width="48" height="48" fill="none"><path fill="#DCF2F9" fill-rule="evenodd" d="M25.68 38.4V26.64a4.32 4.32 0 0 0-4.32-4.32H9.6V6.153c0-2.14.223-2.915.641-3.697A4.361 4.361 0 0 1 12.056.64C12.838.223 13.614 0 15.753 0h26.094c2.14 0 2.915.223 3.697.641a4.362 4.362 0 0 1 1.815 1.815c.418.782.641 1.558.641 3.697v26.094c0 2.14-.223 2.915-.641 3.697a4.362 4.362 0 0 1-1.815 1.815c-.782.418-1.558.641-3.697.641H25.68Z" clip-rule="evenodd"></path><path fill="#1C83A8" d="M34.888 19.737a.831.831 0 0 0-.824-.839h-3.652L42.027 7.192a.85.85 0 0 0 0-1.186.812.812 0 0 0-1.164 0L29.247 17.712v-3.72a.831.831 0 0 0-.823-.84.831.831 0 0 0-.824.84v5.745a.86.86 0 0 0 .063.32.83.83 0 0 0 .76.519h5.641a.83.83 0 0 0 .824-.839Z"></path><path fill="#3CB6E2" fill-rule="evenodd" d="M20.154 24H3.846c-1.337 0-1.822.14-2.311.4A2.726 2.726 0 0 0 .4 25.536c-.262.489-.401.974-.401 2.31v16.31c0 1.336.14 1.821.4 2.31.262.49.646.873 1.135 1.134.489.262.974.401 2.31.401h16.31c1.336 0 1.821-.14 2.31-.4a2.726 2.726 0 0 0 1.134-1.135c.262-.489.401-.974.401-2.31v-16.31c0-1.336-.14-1.821-.4-2.31a2.726 2.726 0 0 0-1.135-1.134c-.489-.262-.974-.401-2.31-.401ZM2.44 26.094c.24-.128.476-.174 1.406-.174h16.308c.93 0 1.166.046 1.406.174a.807.807 0 0 1 .346.346c.128.24.174.476.174 1.406v16.308c0 .93-.046 1.166-.174 1.406a.807.807 0 0 1-.346.346c-.24.128-.476.174-1.406.174H3.846c-.93 0-1.166-.046-1.406-.174a.807.807 0 0 1-.346-.346c-.128-.24-.174-.477-.174-1.406V27.846c0-.93.046-1.166.174-1.406a.807.807 0 0 1 .346-.346Z" clip-rule="evenodd"></path><path fill="#3CB6E2" fill-rule="evenodd" d="M8.88 35.52a2.64 2.64 0 1 1 0-5.28 2.64 2.64 0 0 1 0 5.28ZM22.022 47.206c.42.418.282-6.006.703-6.424.42-.418.42-1.096 0-1.515l-5.384-5.353a1.08 1.08 0 0 0-1.522 0L2.982 46.584c-.42.418.573.204.994.622a1.08 1.08 0 0 0 1.523 0h16.523Z" clip-rule="evenodd"></path></svg>