<svg xmlns="http://www.w3.org/2000/svg" xmlns:xlink="http://www.w3.org/1999/xlink" width="100" height="100" viewBox="0 0 100 100" fill="none"><path d="M16.024 0h67.95c5.572 0 7.593.58 9.63 1.67s3.636 2.688 4.725 4.725 1.67 4.058 1.67 9.63v67.95c0 5.572-.58 7.593-1.67 9.63s-2.688 3.636-4.725 4.725-4.058 1.67-9.63 1.67h-67.95c-5.572 0-7.593-.58-9.63-1.67S2.76 95.642 1.67 93.605 0 89.548 0 83.976v-67.95c0-5.572.58-7.593 1.67-9.63S4.358 2.76 6.395 1.67 10.452 0 16.024 0z" fill="#3CB6E2"></path><g transform="translate(26 24)"><mask id="A" fill="#fff"><use xlink:href="#path-1"></use></mask><path d="M-14.927 62.634h77.883V-24.27h-77.883z" mask="url(#A)" stroke="#1D1D1B" stroke-width="9"></path></g><g fill="#fff"><path d="M46.732 26.52a2.5 2.5 0 1 1 .636 4.959C36.664 32.852 28.5 41.905 28.5 52.756c0 8.813 5.385 16.57 13.453 19.853a2.5 2.5 0 1 1-1.885 4.631C30.143 73.2 23.5 63.632 23.5 52.756c0-13.393 10.058-24.546 23.232-26.235zm29.555 22.875a2.5 2.5 0 1 1-4.95.707c-.322-2.257-.92-4.356-1.8-6.327a2.5 2.5 0 1 1 4.556-2.059c1.09 2.4 1.816 4.964 2.204 7.68zm-22.87 29.59a2.5 2.5 0 1 1-.707-4.95c2.2-.314 4.25-.9 6.178-1.743a2.5 2.5 0 1 1 2.025 4.572c-2.356 1.044-4.85 1.744-7.496 2.122zM71 69a2.5 2.5 0 1 1-4-3c1.436-1.914 2.525-3.823 3.255-5.73a2.5 2.5 0 1 1 4.67 1.786C74.02 64.41 72.703 66.72 71 69z" fill-rule="nonzero"></path><path d="M48.563 42C47.708 42 47 41.292 47 40.438V18.563c0-.854.708-1.562 1.563-1.562.415 0 .806.17 1.1.464L60.6 28.4c.293.293.464.684.464 1.1s-.17.806-.464 1.1L49.66 41.536c-.293.293-.684.464-1.1.464z"></path></g></svg>